# xmcd CD database file
#
# Track frame offsets:
#	150
#	15250
#	31515
#	48605
#	62680
#	77537
#	95064
#	111193
#	126937
#	144269
#	157986
#
# Disc length: 2278 seconds
#
# Revision: 0
# Processed by: cddbd v1.5.2PL0 Copyright (c) Steve Scherf et al.
# Submitted via: CDex 1.51
#
DISCID=7f08e40b
DTITLE=Toby Keith - Big Dog Daddy
DYEAR=2007
DGENRE=Country
TTITLE0=High Maintenance Woman
TTITLE1=Love Me If You Can
TTITLE2=White Rose
TTITLE3=Get My Drink On
TTITLE4=Wouldn't Wanna Be Ya
TTITLE5=Big Dog Daddy
TTITLE6=Burnin' Moonlight
TTITLE7=Walk It Off
TTITLE8=I Know She Hung The Moon
TTITLE9=Pump Jack
TTITLE10=Hit It
EXTD=YEAR: 2007
EXTT0=
EXTT1=
EXTT2=
EXTT3=
EXTT4=
EXTT5=
EXTT6=
EXTT7=
EXTT8=
EXTT9=
EXTT10=
PLAYORDER=
